<svg width="21" height="17" viewBox="0 0 21 17" xmlns="http://www.w3.org/2000/svg"><title>chat-1</title><g fill="none"><path d="M20.024 4.296h-8.09c-.516 0-.934.592-.934 1.323v2.644c0 .73.418 1.323.934 1.323h4.978l1.87 1.986c.223.24.538-.033.492-.425l-.183-1.562h.935c.516 0 .934-.592.934-1.323V5.62c0-.732-.42-1.324-.935-1.324zM1.157 9.07h7.056c.487 0 .882.534.882 1.19v2.38c0 .658-.395 1.19-.882 1.19H4.097l-1.765 1.787c-.212.215-.51-.03-.466-.383l.173-1.403h-.884c-.487 0-.882-.53-.882-1.19v-2.38c0-.655.395-1.19.882-1.19zm0-8.064H8.8c.488 0 .883.397.883.886v2.952c0 .49-.395.885-.882.885H4.1L2.332 7.056c-.212.16-.51-.022-.466-.284L2.04 5.73h-.883c-.487 0-.882-.397-.882-.886V1.892c0-.49.395-.886.882-.886z" fill="#6FBF9D"/><path d="M18.803 6h-3.528c-.152 0-.275.124-.275.276 0 .153.123.276.275.276h3.528c.152 0 .275-.123.275-.276 0-.152-.123-.276-.275-.276z" fill="#6FBF9D"/><path d="M13.275 6.552h1.176c.154 0 .277-.123.277-.276 0-.152-.123-.276-.275-.276h-1.175c-.152 0-.275.124-.275.276 0 .153.123.276.275.276z" fill="#FFF"/><path d="M18.863 7h-.588c-.152 0-.275.124-.275.276 0 .153.123.276.275.276h.588c.152 0 .275-.123.275-.276 0-.152-.123-.276-.275-.276z" fill="#6FBF9D"/><path d="M17.39 7h-4.115c-.152 0-.275.124-.275.276 0 .153.123.276.275.276h4.116c.154 0 .277-.123.277-.276 0-.152-.123-.276-.275-.276z" fill="#FFF"/><path d="M19.8 4.296h-7.643c-.638 0-1.157.7-1.157 1.56v2.38c0 .862.52 1.562 1.157 1.562h4.612l1.69 1.712c.1.102.22.154.34.154.103 0 .205-.037.297-.113.2-.162.304-.47.265-.78l-.12-.97h.558c.64 0 1.158-.7 1.158-1.56V5.86c0-.863-.52-1.563-1.157-1.563zm.608 3.94c0 .452-.273.82-.607.82h-.88c-.08 0-.16.048-.21.13-.052.084-.075.194-.062.302l.174 1.403c.002.01.003.02-.008.028-.01.01-.016.004-.02 0l-1.77-1.788c-.047-.048-.105-.074-.164-.074h-4.703c-.335 0-.607-.368-.607-.82v-2.38c0-.45.272-.818.607-.818H19.8c.335 0 .608.367.608.82v2.38z" fill="#6FBF9D"/><path d="M2.04 11.433h3.527c.152 0 .275-.124.275-.276 0-.153-.123-.276-.275-.276H2.04c-.153 0-.276.125-.276.278 0 .152.123.276.275.276z" fill="#FFF"/><path d="M7.33 10.88h-.587c-.152 0-.275.124-.275.277 0 .152.123.276.275.276h.588c.154 0 .277-.124.277-.276 0-.153-.123-.276-.275-.276zm-4.703 1.182H2.04c-.153 0-.276.123-.276.276 0 .152.123.276.275.276h.586c.152 0 .275-.124.275-.276 0-.153-.122-.276-.274-.276z" fill="#6FBF9D"/><path d="M7.33 12.062H3.804c-.152 0-.275.123-.275.276 0 .152.122.276.274.276H7.33c.153 0 .276-.124.276-.276 0-.153-.123-.276-.275-.276z" fill="#FFF"/><path d="M8.213 8.7H1.157C.52 8.7 0 9.4 0 10.26v2.38c0 .862.52 1.562 1.157 1.562h.557l-.12.97c-.038.313.066.62.266.784.092.075.194.112.296.112.12 0 .24-.052.34-.154l1.693-1.712H8.21c.638 0 1.157-.7 1.157-1.56v-2.38C9.37 9.4 8.85 8.7 8.212 8.7zm.607 3.94c0 .453-.273.82-.607.82H4.097c-.06 0-.118.026-.165.074L2.167 15.32c-.005.005-.01.01-.02 0-.012-.008-.01-.016-.01-.025l.173-1.403c.014-.108-.01-.218-.06-.3-.053-.084-.13-.132-.21-.132h-.883c-.335 0-.607-.367-.607-.82v-2.38c0-.45.272-.818.607-.818h7.056c.334 0 .607.368.607.82v2.38z" fill="#6FBF9D"/><path d="M2.04 2.463h3.527c.152 0 .275-.123.275-.276 0-.152-.123-.276-.275-.276H2.04c-.153 0-.276.126-.276.278 0 .153.123.276.275.276zm5.88-.553H6.742c-.152 0-.275.125-.275.277 0 .153.123.276.275.276H7.92c.15 0 .274-.123.274-.276 0-.152-.123-.276-.275-.276zM5.567 4.272H2.04c-.153 0-.276.124-.276.277 0 .15.123.274.275.274h3.526c.152 0 .275-.124.275-.276 0-.154-.122-.278-.274-.278zm2.353 0H6.742c-.152 0-.275.124-.275.277 0 .15.123.274.275.274H7.92c.15 0 .274-.124.274-.276 0-.154-.123-.278-.275-.278zm-5.88-.628h.587c.152 0 .275-.124.275-.276 0-.153-.123-.276-.275-.276H2.04c-.153 0-.276.123-.276.276 0 .152.123.276.275.276zm5.88-.552H3.802c-.152 0-.275.123-.275.276 0 .152.123.276.275.276H7.92c.15 0 .274-.124.274-.276 0-.153-.123-.276-.275-.276z" fill="#FFF"/><path d="M8.8.73H1.158C.52.73 0 1.25 0 1.892v2.952c0 .64.52 1.16 1.157 1.16h.557l-.12.724c-.038.232.066.46.266.582.092.056.194.084.296.084.12 0 .24-.038.34-.115L4.19 6.003H8.8c.64 0 1.158-.52 1.158-1.16V1.89c0-.64-.52-1.162-1.157-1.162zm.608 4.114c0 .336-.273.61-.607.61H4.1c-.06 0-.118.018-.165.054l-1.765 1.33c-.005.004-.01.007-.02 0-.012-.006-.01-.012-.01-.02l.173-1.043c.015-.08-.01-.162-.06-.224-.052-.06-.13-.096-.21-.096H1.16c-.335 0-.607-.273-.607-.61v-2.95c0-.337.273-.61.608-.61H8.8c.335 0 .608.273.608.61v2.95z" fill="#6FBF9D"/></g></svg>