<svg width="31" height="22" viewBox="0 0 31 22" xmlns="http://www.w3.org/2000/svg"><title>chat-1</title><g fill="none"><path d="M28.694 5.156H17.1c-.74 0-1.338.85-1.338 1.896v3.792c0 1.047.6 1.896 1.338 1.896h7.135l2.676 2.845c.324.342.776-.047.71-.61l-.263-2.235h1.338c.738 0 1.337-.85 1.337-1.896V7.052c0-1.047-.598-1.896-1.336-1.896zM1.658 12h10.11c.698 0 1.264.762 1.264 1.704v3.41c0 .942-.566 1.705-1.264 1.705H5.87l-2.528 2.557c-.304.308-.73-.042-.67-.548l.25-2.01H1.658c-.698 0-1.264-.766-1.264-1.707v-3.41C.394 12.763.96 12 1.658 12zm0-11.558H12.61c.7 0 1.265.568 1.265 1.27v4.23c0 .7-.566 1.268-1.264 1.268H5.87L3.343 9.114c-.304.23-.73-.03-.67-.408l.25-1.496H1.658C.96 7.21.394 6.642.394 5.94V1.71c0-.7.566-1.268 1.264-1.268z" fill="#FFF"/><path d="M26.943 7.598h-5.055c-.217 0-.394.177-.394.395 0 .22.177.396.394.396h5.055c.218 0 .395-.18.395-.398 0-.218-.177-.395-.395-.395zm-7.92.792h1.684c.218 0 .395-.178.395-.397 0-.218-.177-.395-.395-.395h-1.685c-.217 0-.394.177-.394.395 0 .22.177.396.394.396zm8.007.64h-.843c-.218 0-.394.178-.394.396 0 .22.176.396.394.396h.843c.217 0 .394-.177.394-.396 0-.218-.177-.395-.394-.395zm-2.11 0h-5.898c-.217 0-.394.178-.394.396 0 .22.177.396.394.396h5.898c.218 0 .394-.177.394-.396 0-.218-.176-.395-.394-.395z" fill="#C1C1C1"/><path d="M28.373 5.156H17.42c-.914 0-1.658 1.003-1.658 2.237v3.41c0 1.233.744 2.237 1.658 2.237h6.61l2.423 2.452c.145.147.317.222.49.222.145 0 .292-.054.423-.162.286-.235.436-.675.38-1.12l-.17-1.392h.797c.914 0 1.658-1.004 1.658-2.237v-3.41c0-1.234-.74-2.237-1.656-2.237zm.87 5.647c0 .647-.39 1.173-.87 1.173H27.11c-.116 0-.226.07-.3.188-.076.12-.108.277-.09.43l.25 2.012c0 .013.002.025-.014.038-.015.012-.022.005-.03-.002l-2.53-2.56c-.067-.07-.15-.106-.235-.106h-6.74c-.48 0-.87-.526-.87-1.173v-3.41c0-.647.39-1.174.87-1.174h10.954c.48 0 .87.525.87 1.172v3.41z" fill="#FFF"/><path d="M2.922 15.383h5.055c.218 0 .394-.177.394-.396 0-.218-.174-.395-.392-.395H2.922c-.218 0-.394.177-.394.395 0 .22.176.396.394.396zm7.583-.79h-.843c-.218 0-.394.176-.394.394 0 .22.176.396.394.396h.843c.217 0 .394-.177.394-.396 0-.218-.18-.395-.396-.395zm-6.74 1.69H2.92c-.218 0-.394.178-.394.396 0 .217.176.394.394.394h.842c.218 0 .394-.177.394-.396 0-.22-.176-.397-.394-.397zm6.74 0H5.45c-.218 0-.395.178-.395.396 0 .217.177.394.394.394h5.054c.217 0 .394-.177.394-.396 0-.22-.178-.397-.395-.397z" fill="#C1C1C1"/><path d="M11.768 11.467H1.658C.744 11.467 0 12.47 0 13.704v3.41c0 1.233.744 2.237 1.658 2.237h.798l-.17 1.393c-.057.446.093.886.38 1.12.13.11.277.162.423.162.17 0 .342-.074.487-.22L6 19.352h5.767c.915 0 1.658-1.003 1.658-2.236v-3.41c0-1.234-.743-2.237-1.658-2.237zm.87 5.647c0 .647-.39 1.173-.87 1.173H5.87c-.085 0-.168.037-.236.107l-2.53 2.56c-.007.007-.013.014-.03 0-.015-.012-.013-.024-.012-.037l.25-2.01c.018-.155-.015-.312-.09-.432-.074-.12-.184-.188-.3-.188H1.658c-.48 0-.87-.526-.87-1.173v-3.41c0-.647.39-1.174.87-1.174h10.11c.48 0 .87.527.87 1.174v3.41z" fill="#FFF"/><path d="M2.922 2.53h5.055c.218 0 .394-.177.394-.396 0-.218-.174-.396-.392-.396H2.922c-.218 0-.394.178-.394.396 0 .22.176.396.394.396zm8.425-.792H9.662c-.218 0-.394.178-.394.396 0 .22.176.396.394.396h1.685c.218 0 .394-.177.394-.396 0-.218-.174-.396-.392-.396zm-3.37 3.384H2.922c-.218 0-.394.177-.394.396 0 .218.176.396.394.396h5.055c.218 0 .394-.178.394-.396 0-.22-.174-.396-.392-.396zm3.37 0H9.662c-.218 0-.394.177-.394.396 0 .218.176.396.394.396h1.685c.218 0 .394-.178.394-.396 0-.22-.174-.396-.392-.396zm-8.425-.9h.842c.218 0 .394-.177.394-.396 0-.22-.176-.396-.394-.396h-.842c-.218 0-.394.177-.394.396 0 .22.176.396.394.396zm8.425-.792H5.45c-.218 0-.395.177-.395.396 0 .22.177.396.394.396h5.896c.218 0 .394-.177.394-.396 0-.22-.175-.396-.393-.396z" fill="#C1C1C1"/><path d="M12.61.046H1.66C.744.046 0 .793 0 1.71v4.23c0 .92.744 1.665 1.658 1.665h.798l-.17 1.036c-.057.334.093.66.38.836.13.08.277.12.423.12.17 0 .342-.055.487-.164L6 7.607h6.61c.914 0 1.658-.746 1.658-1.664V1.71c0-.917-.745-1.664-1.66-1.664zm.87 5.895c0 .483-.39.875-.87.875H5.87c-.085 0-.168.028-.236.08L3.104 8.8c-.007.005-.013.01-.03 0-.015-.01-.013-.018-.012-.028l.25-1.495c.018-.115-.015-.232-.09-.32-.074-.09-.184-.14-.3-.14H1.658c-.48 0-.87-.393-.87-.874V1.71c0-.48.39-.872.87-.872H12.61c.48 0 .87.392.87.873v4.23z" fill="#FFF"/></g></svg>