<svg width="18" height="22" viewBox="0 0 18 22" xmlns="http://www.w3.org/2000/svg"><title>Fill 221</title><path d="M13.75 5.5c-.76 0-1.375-.616-1.375-1.375v-2.75L16.5 5.5h-2.75zm-.688 6.875h-8.25c-.38 0-.687-.307-.687-.688 0-.38.308-.687.688-.687h8.25c.38 0 .687.308.687.688 0 .38-.308.687-.688.687zm0-3.85h-8.25c-.38 0-.687-.306-.687-.687 0-.38.308-.688.688-.688h8.25c.38 0 .687.308.687.688 0 .38-.308.688-.688.688zm0 7.975h-8.25c-.38 0-.687-.307-.687-.688 0-.38.308-.687.688-.687h8.25c.38 0 .687.307.687.688 0 .38-.308.687-.688.687zM12.376.02L2.75 0C1.23 0 0 1.23 0 2.75v16.5C0 20.77 1.23 22 2.75 22h12.375c1.52 0 2.75-1.23 2.75-2.75V5.5l-5.5-5.48z" fill="#FFFFFE" fill-rule="evenodd"/></svg>