<svg width="19" height="16" viewBox="0 0 19 16" xmlns="http://www.w3.org/2000/svg"><title>gavel</title><g fill="#9AABB7" fill-rule="evenodd"><path d="M.328 13.19c-.175.174-.285.408-.292.656-.01.32.14.62.413.807.106.075.23.125.357.148.315.056.62-.042.84-.26l7.665-7.665L7.977 5.54l-7.65 7.65z"/><path d="M9.09 7.097L7.753 5.762c-.122-.123-.122-.322 0-.445l.89-.89 1.78 1.78-.89.89c-.123.123-.322.123-.445 0z"/><path d="M7.977 4.65c-.123-.123-.123-.322 0-.445l1.78-1.78c.122-.122.322-.122.444 0 .124.123.124.323 0 .445L8.423 4.65c-.123.123-.322.123-.445 0zM10.2 6.875c-.12-.123-.12-.323 0-.445l1.78-1.78c.124-.123.323-.123.446 0s.123.322 0 .445l-1.78 1.78c-.123.122-.322.122-.445 0z"/><path d="M10.2 6.43L8.423 4.65l1.78-1.78 1.78 1.78z"/><path d="M10.2 6.43L8.42 4.65l.708-.707 1.78 1.78zM5.752 3.315c-.245-.245-.245-.644 0-.89L7.977.202c.246-.245.644-.245.89 0 .245.247.245.645 0 .89L6.642 3.316c-.246.246-.644.246-.89 0zM11.536 9.1c-.246-.247-.246-.645 0-.89l2.225-2.225c.246-.246.645-.246.89 0 .246.245.246.644 0 .89L12.427 9.1c-.246.245-.644.245-.89 0z"/><path d="M8.644 1.313l1.112 1.113-1.78 1.78-1.112-1.113zM12.426 5.095l1.112 1.113-1.78 1.78-1.112-1.113z"/><path d="M6.865 3.538c-.123-.123-.123-.322 0-.445l1.78-1.78c.122-.123.32-.123.444 0 .122.123.122.322 0 .445l-1.78 1.78c-.123.123-.322.123-.445 0zM11.314 7.987c-.123-.123-.123-.322 0-.445l1.78-1.78c.122-.123.32-.123.444 0 .123.123.123.322 0 .445l-1.78 1.78c-.122.123-.32.123-.444 0zM17.352 14.488H10.43v-.944c0-.173.14-.314.315-.314h6.292c.174 0 .315.14.315.314v.944z"/><path d="M17.98 15.432H9.8v-.63c0-.347.283-.628.63-.628h6.922c.347 0 .63.28.63.63v.628z"/><path d="M17.98 15.747H9.8c-.173 0-.313-.14-.313-.315 0-.174.14-.315.314-.315h8.18c.175 0 .315.14.315.315 0 .174-.14.315-.314.315z"/></g></svg>