<svg width="48" height="48" viewBox="0 0 48 48" xmlns="http://www.w3.org/2000/svg"><title>sticker-4</title><path d="M23.777 0c13.115 0 23.776 10.632 23.776 23.712 0 13.064-10.66 23.713-23.776 23.713S0 36.775 0 23.712C0 10.632 10.66 0 23.777 0zm5.85 17.19l-8.833 8.757-2.867-2.876c-.79-.787-2.06-.787-2.85 0-.79.79-.79 2.056-.017 2.844l4.3 4.306c.38.378.89.59 1.434.59.527 0 1.038-.212 1.417-.59l10.266-10.172c.79-.79.79-2.054.017-2.843-.79-.79-2.076-.79-2.867-.016z" fill-rule="nonzero" fill="#5EC398"/></svg>