<svg width="5" height="6" viewBox="0 0 5 6" xmlns="http://www.w3.org/2000/svg"><title>Combined Shape</title><path d="M2.5 4.787L4.166 3.12c.192-.192.502-.192.693 0 .192.19.192.5 0 .692L2.854 5.818c-.08.08-.178.125-.28.14-.15.024-.31-.02-.428-.137L.14 3.815c-.192-.19-.192-.502 0-.693.19-.19.5-.19.693 0L2.5 4.788zm0-2.94L4.166.18c.192-.192.502-.192.693 0 .192.19.192.5 0 .692L2.854 2.88c-.08.078-.178.124-.28.138-.15.025-.31-.02-.428-.137L.14.876C-.052.683-.052.373.14.182c.19-.192.5-.192.693 0L2.5 1.848z" fill="#5EC398" fill-rule="evenodd"/></svg>