<svg width="32" height="32" viewBox="0 0 32 32" xmlns="http://www.w3.org/2000/svg"><title>语音</title><g transform="translate(1 1)" fill="none" fill-rule="evenodd"><circle stroke="#CCC" fill="none" cx="15" cy="15" r="15"/><path d="M15 5c2.76 0 5 2.24 5 5v3c0 2.76-2.24 5-5 5s-5-2.24-5-5v-3c0-2.76 2.24-5 5-5z" fill="#CCC"/><path d="M7 14.997C8.05 18.473 11.233 21 15 21c3.765 0 6.95-2.525 8-6h-2.09c-.966 2.35-3.248 4-5.91 4s-4.944-1.65-5.908-4H7.256c-.086 0-.172 0-.257-.003z" fill="#CCC"/><rect fill="#CCC" x="14" y="19" width="2" height="6" rx="1"/></g></svg>