<svg width="210" height="187" viewBox="0 0 210 187" xmlns="http://www.w3.org/2000/svg"><title>即将上线</title><g fill="none" fill-rule="evenodd"><path d="M8 0h194c4.418 0 8 3.582 8 8v171c0 4.418-3.582 8-8 8H8c-4.418 0-8-3.582-8-8V8c0-4.418 3.582-8 8-8z" fill="#F5F5F5"/><path d="M118.996 88.597c-1.324 0-2.4 1.075-2.4 2.4v4.798c0 1.325-1.07 2.4-2.398 2.4H99.802c-1.325 0-2.4-1.075-2.4-2.4v-4.798c0-1.325-1.072-2.4-2.4-2.4h-18.37c-1.563 0-2.707-1.466-2.33-2.982l8.488-33.953c.214-.854.982-1.454 1.865-1.454h44.692c.88 0 1.65.6 1.862 1.454l8.488 33.953c.38 1.516-.765 2.982-2.327 2.982h-18.374zm16.506-39.553c-.535-2.135-2.453-3.635-4.655-3.635H83.155c-2.203 0-4.122 1.5-4.655 3.634l-9.89 39.553v19.994c0 2.21 1.79 4 4 4h68.78c2.21 0 4-1.79 4-4V88.598L135.5 49.044z" stroke="#C4C4C4" stroke-width="3" fill="#DCF0E8"/><text font-family="PingFang-SC-Regular, PingFang SC" font-size="20" letter-spacing="-.482" fill="#C5C5C5"><tspan x="46" y="163">暂无相似案例！</tspan></text></g></svg>