<svg width="40" height="40" viewBox="0 0 40 40" xmlns="http://www.w3.org/2000/svg" xmlns:xlink="http://www.w3.org/1999/xlink"><title>用户头像</title><defs><path d="M15.853 7.21c0-2.518-1.857-4.36-6.005-4.36-4.15 0-6.005 1.842-6.005 4.36 0 2.52-.434 9.156 6.005 9.156 6.44 0 6.005-6.635 6.005-9.155z" id="b"/><filter x="-12.5%" y="-11.1%" width="125%" height="122.2%" filterUnits="objectBoundingBox" id="a"><feOffset in="SourceAlpha" result="shadowOffsetOuter1"/><feGaussianBlur stdDeviation=".5" in="shadowOffsetOuter1" result="shadowBlurOuter1"/><feColorMatrix values="0 0 0 0 0 0 0 0 0 0 0 0 0 0 0 0 0 0 0.0956748188 0" in="shadowBlurOuter1"/></filter></defs><g fill="none" fill-rule="evenodd"><circle fill="#FFF" cx="20" cy="20" r="20"/><path fill="#E1E1E1" d="M18.108 27.787h4.053V23.25H18.11"/><path d="M18.11 23.783s1.704 1.085 4.05.834V23.25h-4.05v.533zM15.634 18.223c0 .944-.676 1.71-1.51 1.71-.835 0-1.51-.766-1.51-1.71 0-.945.675-1.71 1.51-1.71.834 0 1.51.765 1.51 1.71zM27.657 18.223c0 .944-.676 1.71-1.51 1.71s-1.51-.766-1.51-1.71c0-.945.676-1.71 1.51-1.71s1.51.765 1.51 1.71z" fill="#E1E1E1"/><g transform="translate(10.287 7.745)"><use fill="#000" filter="url(#a)" xlink:href="#b"/><use fill="#E1E1E1" xlink:href="#b"/></g><path d="M20.135 25.073v5.106h9.848c0-2.068-5.187-5.107-9.848-5.107zM20.135 25.073v5.106h-9.848c0-2.068 5.187-5.107 9.848-5.107z" fill="#E1E1E1"/><path d="M15.576 25.915l2.454 4.264h2.105v-.616l-2.988-4.117c-.536.13-1.062.287-1.57.468z" fill="#E1E1E1"/><path d="M24.694 25.915L22.24 30.18h-2.105v-.616l2.987-4.117c.537.13 1.063.287 1.572.468zM16.714 25.558c.922 1.52 2.59 4.134 3.42 4.62v-5.105c-1.136 0-2.304.182-3.42.485z" fill="#E1E1E1"/><path d="M23.556 25.558c-.922 1.52-2.59 4.134-3.42 4.62v-5.105c1.136 0 2.304.182 3.42.485z" fill="#E1E1E1"/><path d="M20.17 25.073c-.99 0-2.005.14-2.99.375.007.01 1.093 1.408 2.99 1.408 1.76 0 2.93-1.2 3.098-1.383-1.017-.253-2.07-.4-3.097-.4z" fill="#E1E1E1"/><path d="M18.108 25.25s.593.812 2.027.812c1.434 0 2.026-.813 2.026-.813s-2.1-.766-4.052 0zM20.135 8.44c-8.9 0-7.402 10.08-5.87 10.08.39 0 .123-5.072.84-4.98.716.093 1.98.402 5.03.402 3.05 0 4.314-.31 5.03-.402.717-.092.45 4.98.84 4.98 1.532 0 3.03-10.08-5.87-10.08z" fill="#E1E1E1"/></g></svg>